<svg version="1.1" id="Layer_1" xmlns="http://www.w3.org/2000/svg" xmlns:xlink="http://www.w3.org/1999/xlink" x="0px" y="0px"
	 width="100%" viewBox="0 0 261 168" enable-background="new 0 0 261 168" xml:space="preserve">
<path fill="transparent" opacity="1.000000" stroke="none" 
	d="
M200.000000,169.000000 
	C133.333344,169.000000 67.166695,169.000000 1.000036,169.000000 
	C1.000024,113.000031 1.000024,57.000057 1.000012,1.000066 
	C87.999947,1.000044 174.999893,1.000044 261.999878,1.000022 
	C261.999939,56.999939 261.999939,112.999878 261.999969,168.999908 
	C241.500000,169.000000 221.000000,169.000000 200.000000,169.000000 
M34.732273,60.231976 
	C29.413042,65.513695 24.113211,70.815140 18.768425,76.070869 
	C14.521441,80.247093 14.473510,84.214149 18.737238,88.478851 
	C38.879555,108.625755 59.022404,128.772125 79.190193,148.893509 
	C80.351784,150.052444 81.611870,151.217514 83.037933,151.987366 
	C87.835800,154.577423 93.496338,151.355026 92.988861,145.969269 
	C92.756737,143.505692 90.956406,140.801407 89.123230,138.938461 
	C74.050278,123.620598 58.798592,108.478645 43.615891,93.268585 
	C42.644066,92.295006 41.795132,91.198761 40.346783,89.537704 
	C43.066029,89.537704 44.872730,89.537773 46.679428,89.537697 
	C109.988335,89.535065 173.297241,89.535324 236.606140,89.516426 
	C238.594513,89.515831 240.592819,89.408867 242.569031,89.192154 
	C246.498917,88.761200 248.658539,86.236595 248.714767,82.545753 
	C248.770233,78.905792 246.624649,76.286423 242.915695,75.527107 
	C240.985077,75.131866 238.947723,75.162987 236.958542,75.162430 
	C173.316437,75.144669 109.674324,75.146622 46.032215,75.145615 
	C44.336643,75.145584 42.641075,75.145607 39.759281,75.145607 
	C46.117466,68.835999 51.444214,63.576382 56.741692,58.287449 
	C67.942261,47.104954 79.155487,35.934883 90.304298,24.700945 
	C94.336502,20.637960 94.289940,16.200819 90.400444,13.162847 
	C87.453644,10.861184 83.419113,11.574525 79.772263,15.210883 
	C64.907387,30.032976 50.076012,44.888668 34.732273,60.231976 
z"/>
<path fill="#F7F7F7" opacity="1.000000" stroke="none" 
	d="
M34.982281,59.981976 
	C50.076012,44.888668 64.907387,30.032976 79.772263,15.210883 
	C83.419113,11.574525 87.453644,10.861184 90.400444,13.162847 
	C94.289940,16.200819 94.336502,20.637960 90.304298,24.700945 
	C79.155487,35.934883 67.942261,47.104954 56.741692,58.287449 
	C51.444214,63.576382 46.117466,68.835999 39.759281,75.145607 
	C42.641075,75.145607 44.336643,75.145584 46.032215,75.145615 
	C109.674324,75.146622 173.316437,75.144669 236.958542,75.162430 
	C238.947723,75.162987 240.985077,75.131866 242.915695,75.527107 
	C246.624649,76.286423 248.770233,78.905792 248.714767,82.545753 
	C248.658539,86.236595 246.498917,88.761200 242.569031,89.192154 
	C240.592819,89.408867 238.594513,89.515831 236.606140,89.516426 
	C173.297241,89.535324 109.988335,89.535065 46.679428,89.537697 
	C44.872730,89.537773 43.066029,89.537704 40.346783,89.537704 
	C41.795132,91.198761 42.644066,92.295006 43.615891,93.268585 
	C58.798592,108.478645 74.050278,123.620598 89.123230,138.938461 
	C90.956406,140.801407 92.756737,143.505692 92.988861,145.969269 
	C93.496338,151.355026 87.835800,154.577423 83.037933,151.987366 
	C81.611870,151.217514 80.351784,150.052444 79.190193,148.893509 
	C59.022404,128.772125 38.879555,108.625755 18.737238,88.478851 
	C14.473510,84.214149 14.521441,80.247093 18.768425,76.070869 
	C24.113211,70.815140 29.413042,65.513695 34.982281,59.981976 
z"/>
</svg>