<svg version="1.1" id="Layer_1" xmlns="http://www.w3.org/2000/svg" xmlns:xlink="http://www.w3.org/1999/xlink" x="0px" y="0px"
	 width="100%" viewBox="0 0 154 153" enable-background="new 0 0 154 153" xml:space="preserve">
<path fill="transparent" opacity="1.000000" stroke="none" 
	d="
M89.000000,154.000000 
	C59.333336,154.000000 30.166674,154.000000 1.000008,154.000000 
	C1.000005,103.000008 1.000005,52.000019 1.000003,1.000021 
	C52.333317,1.000014 103.666634,1.000014 154.999969,1.000007 
	C154.999969,51.999981 154.999969,102.999962 154.999985,153.999969 
	C133.166672,154.000000 111.333336,154.000000 89.000000,154.000000 
M139.859360,142.733994 
	C142.412186,144.453674 144.964996,146.173340 147.763229,148.058319 
	C147.763229,100.777504 147.763229,53.869736 147.763229,6.312126 
	C113.998032,30.155790 80.810120,53.591801 47.384121,77.195938 
	C78.408562,99.164917 108.852180,120.722603 139.859360,142.733994 
M5.822485,81.499931 
	C5.822485,103.740921 5.822485,125.981911 5.822485,148.160492 
	C14.069778,148.160492 21.639942,148.160492 29.161823,148.160492 
	C29.161823,100.595818 29.161823,53.389545 29.161823,6.281749 
	C21.200394,6.281749 13.603841,6.281749 5.822483,6.281749 
	C5.822483,31.215137 5.822483,55.857529 5.822485,81.499931 
z"/>
<path fill="#FEFEFE" opacity="1.000000" stroke="none" 
	d="
M139.577576,142.507141 
	C108.852180,120.722603 78.408562,99.164917 47.384121,77.195938 
	C80.810120,53.591801 113.998032,30.155790 147.763229,6.312126 
	C147.763229,53.869736 147.763229,100.777504 147.763229,148.058319 
	C144.964996,146.173340 142.412186,144.453674 139.577576,142.507141 
z"/>
<path fill="#F9F9F9" opacity="1.000000" stroke="none" 
	d="
M5.822484,80.999924 
	C5.822483,55.857529 5.822483,31.215137 5.822483,6.281749 
	C13.603841,6.281749 21.200394,6.281749 29.161823,6.281749 
	C29.161823,53.389545 29.161823,100.595818 29.161823,148.160492 
	C21.639942,148.160492 14.069778,148.160492 5.822485,148.160492 
	C5.822485,125.981911 5.822485,103.740921 5.822484,80.999924 
z"/>
</svg>