<svg version="1.1" id="Layer_1" xmlns="http://www.w3.org/2000/svg" xmlns:xlink="http://www.w3.org/1999/xlink" x="0px" y="0px"
	 width="100%" viewBox="0 0 176 137" enable-background="new 0 0 176 137" xml:space="preserve">
<path fill="#FBFBFB" opacity="1.000000" stroke="none" 
	d="
M1.000001,122.000000 
	C1.000000,84.979103 1.000000,47.958210 1.283156,10.764297 
	C4.377542,7.394186 7.188771,4.197093 10.000000,1.000000 
	C61.020893,1.000000 112.041786,1.000000 163.272095,1.298664 
	C165.576645,3.208621 167.671799,4.819913 169.850647,6.803988 
	C170.470932,10.254884 171.463837,13.331485 171.474075,16.411346 
	C171.585098,49.866016 171.547577,83.321205 171.525726,116.776237 
	C171.524536,118.596863 171.430481,120.436432 171.160934,122.234390 
	C170.278900,128.117920 166.870071,131.396347 160.989563,131.986710 
	C158.843491,132.202164 156.668503,132.180557 154.506699,132.180786 
	C109.219147,132.185608 63.931591,132.180145 18.644037,132.165802 
	C16.648514,132.165176 14.644354,132.159225 12.659319,131.984329 
	C8.507911,131.618576 4.963922,130.257294 3.122226,126.043259 
	C2.881168,125.491699 1.729761,125.337982 1.000000,125.000000 
	C1.000000,124.555557 1.000000,124.111107 1.350005,123.422119 
	C1.466675,122.785049 1.233339,122.392525 1.000001,122.000000 
M86.466270,94.291245 
	C86.482048,88.135666 86.433403,81.979088 86.527977,75.824722 
	C86.689293,65.327141 91.757500,60.291691 102.167885,60.172607 
	C104.496864,60.145966 106.826416,60.168034 109.155701,60.168026 
	C125.439636,60.167965 141.723572,60.167995 158.105042,60.167995 
	C158.105042,44.781666 158.105042,29.764181 158.105042,14.494844 
	C135.093277,14.494844 112.477898,14.469514 89.862633,14.510549 
	C83.226814,14.522590 76.591347,14.722996 69.055344,14.574909 
	C51.134418,14.574909 33.213493,14.574909 15.066141,14.574909 
	C15.066141,49.470318 15.066141,83.997757 15.066141,118.728104 
	C38.882080,118.728104 62.583351,118.728104 86.164177,118.728104 
	C86.164177,110.657333 86.164177,102.855522 86.466270,94.291245 
M100.821953,73.245010 
	C100.530029,73.612831 99.983902,73.979919 99.982819,74.348587 
	C99.939835,89.113701 99.946175,103.878944 99.946175,118.994507 
	C118.615387,118.994507 136.907883,118.997551 155.200394,118.986023 
	C156.172577,118.985413 157.144714,118.861618 158.082413,118.797523 
	C158.082413,103.544678 158.082413,88.518547 158.082413,73.180946 
	C139.050446,73.180946 120.414207,73.180946 100.821953,73.245010 
z"/>
<path fill="#0B1315" opacity="1.000000" stroke="none" 
	d="
M1.000000,125.476662 
	C1.729761,125.337982 2.881168,125.491699 3.122226,126.043259 
	C4.963922,130.257294 8.507911,131.618576 12.659319,131.984329 
	C14.644354,132.159225 16.648514,132.165176 18.644037,132.165802 
	C63.931591,132.180145 109.219147,132.185608 154.506699,132.180786 
	C156.668503,132.180557 158.843491,132.202164 160.989563,131.986710 
	C166.870071,131.396347 170.278900,128.117920 171.160934,122.234390 
	C171.430481,120.436432 171.524536,118.596863 171.525726,116.776237 
	C171.547577,83.321205 171.585098,49.866016 171.474075,16.411346 
	C171.463837,13.331485 170.470932,10.254884 170.036057,6.488823 
	C171.758514,4.200584 173.379257,2.600291 175.000000,0.999999 
	C175.666672,1.331950 176.783829,1.545075 176.909058,2.019836 
	C177.196365,3.109107 177.000000,4.325953 177.000000,5.491004 
	C177.000000,49.596546 177.000000,93.702087 177.000000,137.903809 
	C118.333443,137.903809 59.666744,137.903809 1.000000,137.903809 
	C1.000000,133.942200 1.000000,129.947769 1.000000,125.476662 
z"/>
<path fill="#151A1C" opacity="1.000000" stroke="none" 
	d="
M9.508951,1.000000 
	C7.188771,4.197093 4.377542,7.394186 1.283156,10.295640 
	C1.000000,7.082645 1.000000,4.165290 1.000000,1.000000 
	C3.670005,1.000000 6.343954,1.000000 9.508951,1.000000 
z"/>
<path fill="#212628" opacity="1.000000" stroke="none" 
	d="
M174.541931,0.999999 
	C173.379257,2.600291 171.758514,4.200584 169.952362,6.116042 
	C167.671799,4.819913 165.576645,3.208621 163.740753,1.298664 
	C167.361282,1.000000 170.722580,1.000000 174.541931,0.999999 
z"/>
<path fill="#0B1315" opacity="1.000000" stroke="none" 
	d="
M1.000001,122.250000 
	C1.233339,122.392525 1.466675,122.785049 1.350005,123.088791 
	C1.000000,123.000000 1.000000,122.500000 1.000001,122.250000 
z"/>
<path fill="#0B1315" opacity="1.000000" stroke="none" 
	d="
M86.164177,95.053711 
	C86.164177,102.855522 86.164177,110.657333 86.164177,118.728104 
	C62.583351,118.728104 38.882080,118.728104 15.066141,118.728104 
	C15.066141,83.997757 15.066141,49.470318 15.066141,14.574909 
	C33.213493,14.574909 51.134418,14.574909 69.519043,15.185073 
	C69.989258,22.447275 69.688828,29.117350 70.078346,35.746883 
	C70.589012,44.438248 72.554672,52.555157 80.231041,58.275974 
	C82.119232,59.683144 83.710106,62.691570 83.833244,65.047707 
	C84.266624,73.340157 83.883041,81.672195 84.099976,89.981628 
	C84.144547,91.689117 85.443436,93.363869 86.164177,95.053711 
z"/>
<path fill="#151A1C" opacity="1.000000" stroke="none" 
	d="
M86.315224,94.672478 
	C85.443436,93.363869 84.144547,91.689117 84.099976,89.981628 
	C83.883041,81.672195 84.266624,73.340157 83.833244,65.047707 
	C83.710106,62.691570 82.119232,59.683144 80.231041,58.275974 
	C72.554672,52.555157 70.589012,44.438248 70.078346,35.746883 
	C69.688828,29.117350 69.989258,22.447275 69.969238,15.316154 
	C76.591347,14.722996 83.226814,14.522590 89.862633,14.510549 
	C112.477898,14.469514 135.093277,14.494844 158.105042,14.494844 
	C158.105042,29.764181 158.105042,44.781666 158.105042,60.167995 
	C141.723572,60.167995 125.439636,60.167965 109.155701,60.168026 
	C106.826416,60.168034 104.496864,60.145966 102.167885,60.172607 
	C91.757500,60.291691 86.689293,65.327141 86.527977,75.824722 
	C86.433403,81.979088 86.482048,88.135666 86.315224,94.672478 
z"/>
<path fill="#111719" opacity="1.000000" stroke="none" 
	d="
M101.299957,73.212982 
	C120.414207,73.180946 139.050446,73.180946 158.082413,73.180946 
	C158.082413,88.518547 158.082413,103.544678 158.082413,118.797523 
	C157.144714,118.861618 156.172577,118.985413 155.200394,118.986023 
	C136.907883,118.997551 118.615387,118.994507 99.946175,118.994507 
	C99.946175,103.878944 99.939835,89.113701 99.982819,74.348587 
	C99.983902,73.979919 100.530029,73.612831 101.299957,73.212982 
z"/>
</svg>