<svg version="1.1" id="Layer_1" xmlns="http://www.w3.org/2000/svg" xmlns:xlink="http://www.w3.org/1999/xlink" x="0px" y="0px"
	 width="100%" viewBox="0 0 153 142" enable-background="new 0 0 153 142" xml:space="preserve">
<path fill="#F8F8F8" opacity="1.000000" stroke="none" 
	d="
M81.000000,143.000000 
	C78.629440,143.000000 76.258888,143.000000 73.732376,142.717407 
	C69.850311,137.749405 65.111877,133.540421 62.631073,128.268967 
	C58.734642,119.989456 53.264736,116.723427 44.482639,118.701736 
	C44.321533,118.738014 44.166012,118.799118 43.554123,118.718292 
	C34.617260,118.569565 26.133966,118.580307 17.651100,118.525490 
	C6.912135,118.456093 2.992495,114.488686 2.990452,103.740044 
	C2.985108,75.628441 2.989309,47.516830 2.990008,19.405226 
	C2.990325,6.678314 6.493716,3.178837 19.157528,3.149101 
	C43.437347,3.092091 67.717102,3.007786 92.456345,3.035146 
	C107.911964,3.141224 122.908302,3.102620 137.904175,3.170071 
	C146.301270,3.207842 150.802429,7.656042 150.996109,16.019203 
	C151.134903,22.011753 151.120193,28.007860 151.101456,34.465893 
	C151.022751,57.928139 151.038437,80.926910 151.000595,103.925591 
	C150.983231,114.477577 146.987854,118.510780 136.668213,118.525238 
	C125.668816,118.540649 114.657982,118.819336 103.675240,118.390961 
	C98.844139,118.202538 96.207954,119.756729 93.923965,123.918839 
	C90.312172,130.500610 87.614471,137.922043 80.470955,141.936050 
	C80.453522,141.945847 80.815331,142.630539 81.000000,143.000000 
M78.098991,14.589546 
	C56.872803,14.589546 35.646610,14.589546 14.442961,14.589546 
	C14.442961,45.705349 14.442961,76.237991 14.442961,106.934891 
	C26.467487,106.934891 38.232498,106.934891 50.872826,107.133644 
	C59.768082,105.896309 65.854454,109.539558 69.555809,117.644295 
	C70.784531,120.334793 72.443481,122.834038 73.974724,125.379211 
	C74.909904,126.933640 75.976494,128.409012 77.148849,130.166992 
	C78.929634,127.212822 80.618507,125.071899 81.614792,122.646484 
	C86.493866,110.768562 94.624557,104.677216 107.932442,107.106567 
	C109.704346,107.430016 111.586266,107.150696 113.417236,107.150688 
	C122.021881,107.150658 130.626526,107.150673 139.126343,107.150673 
	C139.126343,76.010330 139.126343,45.470879 139.126343,14.849914 
	C118.859550,14.849914 98.932953,14.849914 78.098991,14.589546 
z"/>
<path fill="#1A1D1D" opacity="1.000000" stroke="none" 
	d="
M81.468658,143.000000 
	C80.815331,142.630539 80.453522,141.945847 80.470955,141.936050 
	C87.614471,137.922043 90.312172,130.500610 93.923965,123.918839 
	C96.207954,119.756729 98.844139,118.202538 103.675240,118.390961 
	C114.657982,118.819336 125.668816,118.540649 136.668213,118.525238 
	C146.987854,118.510780 150.983231,114.477577 151.000595,103.925591 
	C151.038437,80.926910 151.022751,57.928139 151.454712,34.465122 
	C152.586975,34.000561 153.293488,34.000282 154.000000,34.000000 
	C154.000000,70.245796 154.000000,106.491585 154.000000,143.000000 
	C129.979736,143.000000 105.958527,143.000000 81.468658,143.000000 
z"/>
<path fill="#121718" opacity="1.000000" stroke="none" 
	d="
M91.996880,2.934805 
	C67.717102,3.007786 43.437347,3.092091 19.157528,3.149101 
	C6.493716,3.178837 2.990325,6.678314 2.990008,19.405226 
	C2.989309,47.516830 2.985108,75.628441 2.990452,103.740044 
	C2.992495,114.488686 6.912135,118.456093 17.651100,118.525490 
	C26.133966,118.580307 34.617260,118.569565 43.552139,119.197006 
	C43.669277,127.537384 43.334637,135.268692 43.000000,143.000000 
	C29.022301,143.000000 15.044602,143.000000 1.033452,143.000000 
	C1.033452,95.764389 1.033452,48.528744 1.033452,1.000000 
	C31.020258,1.000000 61.041470,1.000000 91.531517,1.322468 
	C91.999191,2.074893 91.998039,2.504849 91.996880,2.934805 
z"/>
<path fill="#1A1D1D" opacity="1.000000" stroke="none" 
	d="
M43.468658,143.000000 
	C43.334637,135.268692 43.669277,127.537384 44.005898,119.327362 
	C44.166012,118.799118 44.321533,118.738014 44.482639,118.701736 
	C53.264736,116.723427 58.734642,119.989456 62.631073,128.268967 
	C65.111877,133.540421 69.850311,137.749405 73.288208,142.717407 
	C63.312439,143.000000 53.624878,143.000000 43.468658,143.000000 
z"/>
<path fill="#1C1E1F" opacity="1.000000" stroke="none" 
	d="
M92.456345,3.035146 
	C91.998039,2.504849 91.999191,2.074893 92.000175,1.322468 
	C112.571037,1.000000 133.142075,1.000000 154.000000,1.000000 
	C154.000000,11.685852 154.000000,22.374268 154.000000,33.531342 
	C153.293488,34.000282 152.586975,34.000561 151.527222,34.001610 
	C151.120193,28.007860 151.134903,22.011753 150.996109,16.019203 
	C150.802429,7.656042 146.301270,3.207842 137.904175,3.170071 
	C122.908302,3.102620 107.911964,3.141224 92.456345,3.035146 
z"/>
<path fill="#191C1C" opacity="1.000000" stroke="none" 
	d="
M79.006363,14.849914 
	C98.932953,14.849914 118.859550,14.849914 139.126343,14.849914 
	C139.126343,45.470879 139.126343,76.010330 139.126343,107.150673 
	C130.626526,107.150673 122.021881,107.150658 113.417236,107.150688 
	C111.586266,107.150696 109.704346,107.430016 107.932442,107.106567 
	C94.624557,104.677216 86.493866,110.768562 81.614792,122.646484 
	C80.618507,125.071899 78.929634,127.212822 77.148849,130.166992 
	C75.976494,128.409012 74.909904,126.933640 73.974724,125.379211 
	C72.443481,122.834038 70.784531,120.334793 69.555809,117.644295 
	C65.854454,109.539558 59.768082,105.896309 50.444378,106.649055 
	C52.551659,102.763931 52.699654,98.814209 53.369747,94.799843 
	C53.792080,92.269753 57.200447,90.161652 59.435707,88.039497 
	C60.762878,86.779488 62.562065,86.016380 63.887962,84.755363 
	C66.889351,81.900818 69.836479,78.972885 72.605392,75.894638 
	C75.617584,72.545937 79.420296,70.180061 79.207321,64.271652 
	C78.614174,47.816708 79.004448,31.326311 79.006363,14.849914 
M103.708023,56.238644 
	C100.693108,50.307434 96.022179,48.448433 90.851585,51.121868 
	C86.400894,53.423080 84.867966,58.858646 87.562653,63.455891 
	C89.719749,67.135994 93.101852,68.610374 97.243240,67.574455 
	C102.212395,66.331474 104.156075,63.069633 103.708023,56.238644 
z"/>
<path fill="#111616" opacity="1.000000" stroke="none" 
	d="
M78.552673,14.719730 
	C79.004448,31.326311 78.614174,47.816708 79.207321,64.271652 
	C79.420296,70.180061 75.617584,72.545937 72.605392,75.894638 
	C69.836479,78.972885 66.889351,81.900818 63.887962,84.755363 
	C62.562065,86.016380 60.762878,86.779488 59.435707,88.039497 
	C57.200447,90.161652 53.792080,92.269753 53.369747,94.799843 
	C52.699654,98.814209 52.551659,102.763931 50.006721,106.549683 
	C38.232498,106.934891 26.467487,106.934891 14.442961,106.934891 
	C14.442961,76.237991 14.442961,45.705349 14.442961,14.589546 
	C35.646610,14.589546 56.872803,14.589546 78.552673,14.719730 
M62.289001,50.850525 
	C58.333019,48.740566 54.883232,49.819557 52.026806,52.836395 
	C49.236969,55.782898 48.894955,59.377388 50.633167,62.964863 
	C52.390701,66.592209 55.508713,68.337616 59.534050,67.991562 
	C63.558945,67.645554 66.289124,65.389908 67.468582,61.526638 
	C68.886971,56.880775 66.985062,53.519871 62.289001,50.850525 
z"/>
<path fill="#F8F8F8" opacity="1.000000" stroke="none" 
	d="
M103.819077,56.622963 
	C104.156075,63.069633 102.212395,66.331474 97.243240,67.574455 
	C93.101852,68.610374 89.719749,67.135994 87.562653,63.455891 
	C84.867966,58.858646 86.400894,53.423080 90.851585,51.121868 
	C96.022179,48.448433 100.693108,50.307434 103.819077,56.622963 
z"/>
<path fill="#F7F8F8" opacity="1.000000" stroke="none" 
	d="
M62.667885,50.965149 
	C66.985062,53.519871 68.886971,56.880775 67.468582,61.526638 
	C66.289124,65.389908 63.558945,67.645554 59.534050,67.991562 
	C55.508713,68.337616 52.390701,66.592209 50.633167,62.964863 
	C48.894955,59.377388 49.236969,55.782898 52.026806,52.836395 
	C54.883232,49.819557 58.333019,48.740566 62.667885,50.965149 
z"/>
</svg>