<svg version="1.1" id="Layer_1" xmlns="http://www.w3.org/2000/svg" xmlns:xlink="http://www.w3.org/1999/xlink" x="0px" y="0px"
	 width="100%" viewBox="0 0 254 213" enable-background="new 0 0 254 213" xml:space="preserve">
<path fill="transparent" opacity="1.000000" stroke="none" 
	d="
M255.000000,97.000000 
	C255.000000,110.687561 255.000000,124.375122 254.584045,138.531113 
	C252.708038,138.522797 251.248001,138.046066 249.687500,137.162796 
	C251.002213,132.536331 250.150742,128.689972 246.721207,125.998802 
	C243.105362,123.161469 239.132492,123.546471 235.147522,125.906250 
	C224.024445,132.492981 212.802277,138.912125 201.637466,145.428696 
	C179.013474,158.633636 156.358368,171.786407 133.826782,185.147369 
	C130.043289,187.390930 127.238068,187.376144 123.585144,184.797729 
	C118.618874,181.292328 113.109138,178.556885 107.869461,175.073029 
	C106.440804,169.717804 106.994759,163.531174 99.533951,162.464172 
	C98.280235,162.284882 96.638680,159.883835 96.433678,158.342163 
	C96.018982,155.223557 94.004562,154.004639 92.087242,151.978928 
	C89.221176,148.950836 86.751030,146.642395 82.426071,146.407593 
	C81.518791,146.358322 80.476761,144.328308 79.938568,143.028168 
	C79.199478,141.242722 78.881592,139.282913 78.364388,137.326584 
	C74.581802,136.862076 70.907867,136.753311 67.419334,135.892838 
	C63.373226,134.894852 57.492172,134.352356 55.968399,131.623703 
	C53.142223,126.562790 45.078613,127.533989 44.731258,120.619919 
	C44.720001,120.395866 43.569298,120.190117 42.934219,120.042824 
	C39.415714,119.226814 35.801090,118.694252 32.410191,117.515656 
	C30.775501,116.947472 28.717833,115.391922 28.335419,113.902512 
	C27.627048,111.143578 26.514299,109.947289 23.679373,109.864059 
	C22.461971,109.828308 21.058876,109.135002 20.103251,108.316521 
	C14.568794,103.576271 8.285287,100.665718 1.000000,100.000000 
	C1.000000,94.645073 1.000000,89.290138 1.391444,83.476257 
	C4.270532,82.980759 6.758175,82.944206 9.535635,83.069069 
	C11.549307,84.489372 13.180033,85.907158 15.012300,86.981102 
	C26.019087,93.432449 37.090790,99.772957 48.105930,106.210167 
	C73.001068,120.758820 97.901413,135.298950 122.734299,149.953293 
	C126.940010,152.435165 130.793198,152.388779 134.877563,149.952576 
	C141.102585,146.239563 147.373627,142.603500 153.635880,138.953201 
	C184.594376,120.907318 215.556412,102.867516 246.817566,84.996460 
	C246.207794,93.243256 248.354248,96.465515 255.000000,97.000000 
z"/>
<path fill="transparent" opacity="1.000000" stroke="none" 
	d="
M117.000000,214.000000 
	C78.416832,214.000000 39.833672,214.000000 1.000000,214.000000 
	C1.000000,185.312927 1.000000,156.625122 1.384774,127.517563 
	C4.012301,127.786957 6.255055,128.476105 8.337778,129.572296 
	C6.665248,135.413971 8.701341,139.255569 13.434486,141.998489 
	C18.826218,145.123062 24.150593,148.363602 29.520346,151.526413 
	C47.070019,161.863235 64.627014,172.187607 82.138168,182.927368 
	C82.409782,187.825378 84.899345,187.586548 88.334778,186.067108 
	C91.454506,187.740891 94.225990,189.396606 97.006424,191.425507 
	C97.815887,196.265701 100.073372,198.024780 104.771301,195.787628 
	C106.108681,196.352478 107.144104,196.938980 108.029556,197.899567 
	C106.165421,201.875366 107.156952,205.225266 110.919151,205.607880 
	C116.763046,206.202194 116.721542,209.962097 117.000000,214.000000 
z"/>
<path fill="transparent" opacity="1.000000" stroke="none" 
	d="
M9.245819,82.907654 
	C6.758175,82.944206 4.270532,82.980759 1.391444,83.008652 
	C1.000000,55.734005 1.000000,28.468008 1.000000,1.000000 
	C32.687275,1.000000 64.374977,1.000000 96.606552,1.374238 
	C99.188759,2.498984 101.180252,3.695602 103.274315,3.915525 
	C109.316528,4.550090 115.400093,4.790960 121.257294,5.476379 
	C106.965027,13.943877 92.872459,22.103539 78.803162,30.303141 
	C57.066135,42.971493 35.323471,55.630463 13.630316,68.373619 
	C7.126759,72.193993 6.057668,76.115921 9.245819,82.907654 
z"/>
<path fill="transparent" opacity="1.000000" stroke="none" 
	d="
M117.468658,214.000000 
	C116.721542,209.962097 116.763046,206.202194 110.919151,205.607880 
	C107.156952,205.225266 106.165421,201.875366 108.369934,198.018036 
	C113.760956,200.670227 118.452309,204.067032 123.646011,206.290359 
	C126.463295,207.496384 130.335815,207.440063 133.369553,206.616592 
	C136.744781,205.700455 139.707535,203.264694 142.925140,201.889526 
	C144.276886,203.177505 145.478546,204.687759 146.842331,204.852020 
	C154.301605,205.750504 161.789474,206.682785 169.288757,206.913589 
	C180.212936,207.249802 185.000290,202.295776 184.999710,191.533951 
	C184.999573,189.044052 185.350021,186.485016 184.881607,184.086182 
	C184.508713,182.176453 183.134033,180.462311 182.458435,178.399292 
	C195.181564,170.900070 207.743561,163.817581 220.089874,156.377213 
	C230.123428,150.330582 239.898331,143.854797 249.787949,137.569336 
	C251.248001,138.046066 252.708038,138.522797 254.584045,138.999771 
	C255.000000,163.948547 255.000000,188.897110 255.000000,214.000000 
	C209.312546,214.000000 163.624939,214.000000 117.468658,214.000000 
z"/>
<path fill="transparent" opacity="1.000000" stroke="none" 
	d="
M121.467415,5.186440 
	C115.400093,4.790960 109.316528,4.550090 103.274315,3.915525 
	C101.180252,3.695602 99.188759,2.498984 97.075211,1.374238 
	C126.687561,1.000000 156.375122,1.000000 186.614990,1.368255 
	C187.356247,2.001199 187.498566,2.440132 187.740997,2.505026 
	C193.434372,4.029023 199.949799,4.073743 202.201126,11.423297 
	C202.458954,12.264974 204.711609,12.580335 206.085724,12.980350 
	C211.416946,14.532316 217.813583,13.349088 221.483215,19.225746 
	C221.900330,19.893742 223.590118,19.934347 224.700638,19.975918 
	C234.799057,20.353949 244.899872,20.667555 255.000000,21.000000 
	C255.000000,46.020893 255.000000,71.041786 255.000000,96.531342 
	C248.354248,96.465515 246.207794,93.243256 247.024811,84.681793 
	C251.968597,78.526405 251.323135,72.846710 245.136551,68.869331 
	C242.625275,67.254807 240.061234,65.718437 237.480515,64.216454 
	C203.820847,44.626354 170.119980,25.106661 136.524368,5.407410 
	C131.325989,2.359269 126.538101,1.890307 121.467415,5.186440 
z"/>
<path fill="transparent" opacity="1.000000" stroke="none" 
	d="
M8.497809,129.165237 
	C6.255055,128.476105 4.012301,127.786957 1.384774,127.048904 
	C1.000000,118.312439 1.000000,109.624870 1.000000,100.468658 
	C8.285287,100.665718 14.568794,103.576271 20.103251,108.316521 
	C21.058876,109.135002 22.461971,109.828308 23.679373,109.864059 
	C26.514299,109.947289 27.627048,111.143578 28.335419,113.902512 
	C28.717833,115.391922 30.775501,116.947472 32.410191,117.515656 
	C35.801090,118.694252 39.415714,119.226814 42.934219,120.042824 
	C43.569298,120.190117 44.720001,120.395866 44.731258,120.619919 
	C45.078613,127.533989 53.142223,126.562790 55.968399,131.623703 
	C57.492172,134.352356 63.373226,134.894852 67.419334,135.892838 
	C70.907867,136.753311 74.581802,136.862076 78.364388,137.326584 
	C78.881592,139.282913 79.199478,141.242722 79.938568,143.028168 
	C80.476761,144.328308 81.518791,146.358322 82.426071,146.407593 
	C86.751030,146.642395 89.221176,148.950836 92.087242,151.978928 
	C94.004562,154.004639 96.018982,155.223557 96.433678,158.342163 
	C96.638680,159.883835 98.280235,162.284882 99.533951,162.464172 
	C106.994759,163.531174 106.440804,169.717804 107.553925,174.906342 
	C96.664948,169.131897 86.116638,163.126556 75.594696,157.075363 
	C57.583157,146.716843 39.534550,136.420853 21.617310,125.901367 
	C15.901264,122.545387 12.061766,123.798744 8.497809,129.165237 
z"/>
<path fill="transparent" opacity="1.000000" stroke="none" 
	d="
M255.000000,20.530956 
	C244.899872,20.667555 234.799057,20.353949 224.700638,19.975918 
	C223.590118,19.934347 221.900330,19.893742 221.483215,19.225746 
	C217.813583,13.349088 211.416946,14.532316 206.085724,12.980350 
	C204.711609,12.580335 202.458954,12.264974 202.201126,11.423297 
	C199.949799,4.073743 193.434372,4.029023 187.740997,2.505026 
	C187.498566,2.440132 187.356247,2.001199 187.083649,1.368255 
	C209.553177,1.000000 232.106369,1.000000 255.000000,1.000000 
	C255.000000,7.349918 255.000000,13.705916 255.000000,20.530956 
z"/>
<path fill="#FEFEFE" opacity="1.000000" stroke="none" 
	d="
M121.257294,5.476379 
	C126.538101,1.890307 131.325989,2.359269 136.524368,5.407410 
	C170.119980,25.106661 203.820847,44.626354 237.480515,64.216454 
	C240.061234,65.718437 242.625275,67.254807 245.136551,68.869331 
	C251.323135,72.846710 251.968597,78.526405 246.724457,84.510895 
	C215.556412,102.867516 184.594376,120.907318 153.635880,138.953201 
	C147.373627,142.603500 141.102585,146.239563 134.877563,149.952576 
	C130.793198,152.388779 126.940010,152.435165 122.734299,149.953293 
	C97.901413,135.298950 73.001068,120.758820 48.105930,106.210167 
	C37.090790,99.772957 26.019087,93.432449 15.012300,86.981102 
	C13.180033,85.907158 11.549307,84.489372 9.535635,83.069061 
	C6.057668,76.115921 7.126759,72.193993 13.630316,68.373619 
	C35.323471,55.630463 57.066135,42.971493 78.803162,30.303141 
	C92.872459,22.103539 106.965027,13.943877 121.257294,5.476379 
z"/>
<path fill="#FEFEFE" opacity="1.000000" stroke="none" 
	d="
M8.337778,129.572296 
	C12.061766,123.798744 15.901264,122.545387 21.617310,125.901367 
	C39.534550,136.420853 57.583157,146.716843 75.594696,157.075363 
	C86.116638,163.126556 96.664948,169.131897 107.516937,175.324539 
	C113.109138,178.556885 118.618874,181.292328 123.585144,184.797729 
	C127.238068,187.376144 130.043289,187.390930 133.826782,185.147369 
	C156.358368,171.786407 179.013474,158.633636 201.637466,145.428696 
	C212.802277,138.912125 224.024445,132.492981 235.147522,125.906250 
	C239.132492,123.546471 243.105362,123.161469 246.721207,125.998802 
	C250.150742,128.689972 251.002213,132.536331 249.687500,137.162796 
	C239.898331,143.854797 230.123428,150.330582 220.089874,156.377213 
	C207.743561,163.817581 195.181564,170.900070 182.143829,178.476379 
	C168.666519,186.373840 155.758194,193.932159 142.849869,201.490479 
	C139.707535,203.264694 136.744781,205.700455 133.369553,206.616592 
	C130.335815,207.440063 126.463295,207.496384 123.646011,206.290359 
	C118.452309,204.067032 113.760956,200.670227 108.519897,197.643951 
	C107.144104,196.938980 106.108681,196.352478 104.615067,195.472977 
	C101.770401,193.804092 99.383934,192.428207 96.997467,191.052307 
	C94.225990,189.396606 91.454506,187.740891 88.112625,185.809204 
	C85.755219,184.527725 83.968208,183.522247 82.181190,182.516785 
	C64.627014,172.187607 47.070019,161.863235 29.520346,151.526413 
	C24.150593,148.363602 18.826218,145.123062 13.434486,141.998489 
	C8.701341,139.255569 6.665248,135.413971 8.337778,129.572296 
z"/>
<path fill="#0C0F10" opacity="1.000000" stroke="none" 
	d="
M97.006424,191.425507 
	C99.383934,192.428207 101.770401,193.804092 104.313110,195.494629 
	C100.073372,198.024780 97.815887,196.265701 97.006424,191.425507 
z"/>
<path fill="#0C0F10" opacity="1.000000" stroke="none" 
	d="
M82.138168,182.927368 
	C83.968208,183.522247 85.755219,184.527725 87.764374,185.791122 
	C84.899345,187.586548 82.409782,187.825378 82.138168,182.927368 
z"/>
<path fill="#0C0F10" opacity="1.000000" stroke="none" 
	d="
M142.925140,201.889526 
	C155.758194,193.932159 168.666519,186.373840 181.889465,178.738434 
	C183.134033,180.462311 184.508713,182.176453 184.881607,184.086182 
	C185.350021,186.485016 184.999573,189.044052 184.999710,191.533951 
	C185.000290,202.295776 180.212936,207.249802 169.288757,206.913589 
	C161.789474,206.682785 154.301605,205.750504 146.842331,204.852020 
	C145.478546,204.687759 144.276886,203.177505 142.925140,201.889526 
z"/>
</svg>