<svg version="1.1" id="Layer_1" xmlns="http://www.w3.org/2000/svg" xmlns:xlink="http://www.w3.org/1999/xlink" x="0px" y="0px"
	 width="100%" viewBox="0 0 131 146" enable-background="new 0 0 131 146" xml:space="preserve">
<path fill="#0F1314" opacity="1.000000" stroke="none" 
	d="
M21.000000,1.000000 
	C57.879673,1.000000 94.759346,1.000000 132.000000,1.000000 
	C132.000000,8.683772 132.000000,16.373194 131.592789,24.531193 
	C129.300140,24.996614 127.414696,24.993460 125.483513,24.530817 
	C125.431618,22.238552 125.429070,20.405750 125.418694,18.572996 
	C125.374771,10.816221 123.747597,9.162438 116.091782,9.146069 
	C109.593620,9.132174 103.095390,9.139086 96.597206,9.145341 
	C88.268097,9.153359 86.822197,10.633839 86.792427,19.048855 
	C86.720528,39.367825 86.632736,59.686733 86.204651,80.000031 
	C79.592209,77.627274 73.323067,75.269096 67.064453,72.883293 
	C66.138191,72.530197 65.235634,72.093933 64.366325,71.615761 
	C57.957264,68.090317 51.559425,64.544464 45.076927,60.542290 
	C44.993595,45.821518 45.015900,31.563429 44.977493,17.305506 
	C44.961475,11.358870 42.857883,9.283102 36.918514,9.143044 
	C33.278507,9.057207 29.637896,8.996810 25.952698,8.582023 
	C24.271894,5.826037 22.635946,3.413018 21.000000,1.000000 
z"/>
<path fill="#080A0B" opacity="1.000000" stroke="none" 
	d="
M132.000000,121.000000 
	C132.000000,129.651718 132.000000,138.303436 132.000000,146.977570 
	C88.423615,146.977570 44.847210,146.977570 1.000000,146.977570 
	C1.000000,114.979614 1.000000,82.958466 1.329403,50.520611 
	C3.081141,51.069611 4.503477,52.035313 6.020790,53.461151 
	C6.125810,79.535782 6.131694,105.150276 6.148399,130.764771 
	C6.153493,138.577209 7.778891,140.267166 15.322480,140.291763 
	C22.308199,140.314545 29.294195,140.327988 36.279789,140.291550 
	C43.333847,140.254745 44.962639,138.554184 44.985912,131.381790 
	C45.042568,113.921692 45.101986,96.461601 45.525002,79.054802 
	C51.281631,81.145203 56.693626,83.132164 62.043446,85.274414 
	C62.830040,85.589394 63.331154,86.633141 63.947384,87.354195 
	C64.987495,88.571236 65.830048,90.047623 67.081139,90.976700 
	C70.685287,93.653221 74.330292,96.318893 78.197723,98.581146 
	C80.769897,100.085754 83.750931,100.891373 86.654816,102.466858 
	C86.771873,112.875511 86.730888,122.827606 86.814697,132.778641 
	C86.861778,138.368881 88.699608,140.206833 94.317863,140.270264 
	C102.278236,140.360184 110.241333,140.368347 118.201424,140.266846 
	C123.324066,140.201508 125.219734,138.210159 125.391556,132.951874 
	C125.521492,128.975647 125.489456,124.994141 125.931137,121.016975 
	C128.221848,121.012642 130.110916,121.006317 132.000000,121.000000 
z"/>
<path fill="#131819" opacity="1.000000" stroke="none" 
	d="
M125.529259,24.990303 
	C127.414696,24.993460 129.300140,24.996614 131.592789,24.999886 
	C132.000000,51.687561 132.000000,78.375122 131.592834,105.531006 
	C129.300400,106.002579 127.415154,106.005821 125.472656,105.543457 
	C125.453362,78.381996 125.491310,51.686150 125.529259,24.990303 
z"/>
<path fill="#0A0D0E" opacity="1.000000" stroke="none" 
	d="
M5.925812,53.001015 
	C4.503477,52.035313 3.081141,51.069611 1.329403,50.051952 
	C1.000000,33.771122 1.000000,17.542248 1.000000,1.000000 
	C7.350537,1.000000 13.706225,1.000000 20.530956,1.000000 
	C22.635946,3.413018 24.271894,5.826037 25.494282,8.674318 
	C21.771788,9.116770 18.462818,9.116661 15.153925,9.132648 
	C8.040344,9.167017 6.178486,11.066741 6.137883,18.277254 
	C6.072703,29.851873 5.997042,41.426434 5.925812,53.001015 
z"/>
<path fill="#0F1314" opacity="1.000000" stroke="none" 
	d="
M125.529900,106.009064 
	C127.415154,106.005821 129.300400,106.002579 131.592834,105.999664 
	C132.000000,110.689255 132.000000,115.378510 132.000000,120.533882 
	C130.110916,121.006317 128.221848,121.012642 125.873123,120.553207 
	C125.452286,115.394661 125.491096,110.701859 125.529900,106.009064 
z"/>
<path fill="#FDFDFD" opacity="1.000000" stroke="none" 
	d="
M6.020789,53.461151 
	C5.997042,41.426434 6.072703,29.851873 6.137883,18.277254 
	C6.178486,11.066741 8.040344,9.167017 15.153925,9.132648 
	C18.462818,9.116661 21.771788,9.116770 25.539139,9.017286 
	C29.637896,8.996810 33.278507,9.057207 36.918514,9.143044 
	C42.857883,9.283102 44.961475,11.358870 44.977493,17.305506 
	C45.015900,31.563429 44.993595,45.821518 45.002113,61.004662 
	C45.059052,67.620354 45.109669,73.310928 45.160290,79.001503 
	C45.101986,96.461601 45.042568,113.921692 44.985912,131.381790 
	C44.962639,138.554184 43.333847,140.254745 36.279789,140.291550 
	C29.294195,140.327988 22.308199,140.314545 15.322480,140.291763 
	C7.778891,140.267166 6.153493,138.577209 6.148399,130.764771 
	C6.131694,105.150276 6.125810,79.535782 6.020789,53.461151 
z"/>
<path fill="#FFFFFF" opacity="1.000000" stroke="none" 
	d="
M125.472656,105.543457 
	C125.491096,110.701859 125.452286,115.394661 125.471497,120.551224 
	C125.489456,124.994141 125.521492,128.975647 125.391556,132.951874 
	C125.219734,138.210159 123.324066,140.201508 118.201424,140.266846 
	C110.241333,140.368347 102.278236,140.360184 94.317863,140.270264 
	C88.699608,140.206833 86.861778,138.368881 86.814697,132.778641 
	C86.730888,122.827606 86.771873,112.875511 86.761810,102.008591 
	C86.692429,94.064095 86.621887,87.034882 86.551346,80.005669 
	C86.632736,59.686733 86.720528,39.367825 86.792427,19.048855 
	C86.822197,10.633839 88.268097,9.153359 96.597206,9.145341 
	C103.095390,9.139086 109.593620,9.132174 116.091782,9.146069 
	C123.747597,9.162438 125.374771,10.816221 125.418694,18.572996 
	C125.429070,20.405750 125.431618,22.238552 125.483513,24.530817 
	C125.491310,51.686150 125.453362,78.381996 125.472656,105.543457 
z"/>
<path fill="#0A0B0C" opacity="1.000000" stroke="none" 
	d="
M86.204651,80.000031 
	C86.621887,87.034882 86.692429,94.064095 86.655968,101.551582 
	C83.750931,100.891373 80.769897,100.085754 78.197723,98.581146 
	C74.330292,96.318893 70.685287,93.653221 67.081139,90.976700 
	C65.830048,90.047623 64.987495,88.571236 63.947384,87.354195 
	C63.331154,86.633141 62.830040,85.589394 62.043446,85.274414 
	C56.693626,83.132164 51.281631,81.145203 45.525002,79.054802 
	C45.109669,73.310928 45.059052,67.620354 45.083244,61.467407 
	C51.559425,64.544464 57.957264,68.090317 64.366325,71.615761 
	C65.235634,72.093933 66.138191,72.530197 67.064453,72.883293 
	C73.323067,75.269096 79.592209,77.627274 86.204651,80.000031 
z"/>
</svg>