<svg version="1.1" id="Layer_1" xmlns="http://www.w3.org/2000/svg" xmlns:xlink="http://www.w3.org/1999/xlink" x="0px" y="0px"
	 width="100%" viewBox="0 0 151 149" enable-background="new 0 0 151 149" xml:space="preserve">
<path fill="transparent" opacity="1.000000" stroke="none" 
	d="
M1.000000,55.000000 
	C1.000000,36.681538 1.000000,18.863073 1.000000,1.022304 
	C51.276485,1.022304 101.552986,1.022304 151.914734,1.022304 
	C151.914734,50.568283 151.914734,100.136765 151.914734,149.852631 
	C101.666985,149.852631 51.333549,149.852631 1.000000,149.852631 
	C1.000000,118.447380 1.000000,86.973686 1.000000,55.000000 
M89.517647,136.206085 
	C53.266640,143.423386 18.795553,116.103394 16.790316,78.503426 
	C16.597408,74.886215 16.093676,71.354401 11.634352,71.569466 
	C7.540514,71.766907 7.062391,75.149681 7.202517,78.603752 
	C9.014520,123.269165 52.704803,155.748993 95.776878,144.426727 
	C132.887115,134.671646 154.656509,97.360138 145.058640,59.960640 
	C135.461060,22.562300 96.681244,-1.096279 59.905403,8.647541 
	C50.796288,11.061015 42.294655,15.767282 33.393066,19.469822 
	C32.838066,16.935427 32.084362,13.735964 31.446930,10.513500 
	C30.830818,7.398800 28.981276,5.594557 25.871105,6.202119 
	C22.810432,6.800011 21.549402,9.156757 22.177103,12.256440 
	C23.397890,18.284853 24.436050,24.372635 26.128569,30.269732 
	C26.648190,32.080204 28.814194,34.198517 30.637465,34.709915 
	C36.386013,36.322285 42.347996,37.156639 48.190845,38.456326 
	C51.639957,39.223549 53.943523,37.934544 54.566040,34.680988 
	C55.178890,31.477997 52.989513,29.875250 50.040207,29.238245 
	C47.404324,28.668934 44.774151,28.073206 41.701817,27.391598 
	C58.851528,13.362967 86.309128,12.260543 107.220230,24.290855 
	C128.340332,36.441402 141.093338,61.950409 137.582489,85.022560 
	C133.534607,111.624031 116.142624,130.429947 89.517647,136.206085 
M89.562614,52.777977 
	C82.542572,52.901546 77.889824,56.697258 75.482307,62.880741 
	C72.039772,71.722572 71.976173,80.814903 75.463402,89.722160 
	C78.155136,96.597542 83.539688,100.142433 90.450829,100.002785 
	C96.763229,99.875237 102.388847,95.881653 104.687286,89.334503 
	C107.645653,80.907570 107.809258,72.273186 104.826859,63.843098 
	C102.487617,57.230980 97.963173,52.906841 89.562614,52.777977 
M9.737464,40.825008 
	C11.309480,49.340660 11.313642,49.319901 19.833975,51.028095 
	C24.068611,51.877079 28.281395,52.834499 32.510349,53.712593 
	C35.604885,54.355145 38.318436,53.910797 39.121208,50.334682 
	C39.927429,46.743191 37.708641,45.218956 34.567726,44.503887 
	C29.566969,43.365410 23.066944,43.665321 20.011221,40.576653 
	C16.949568,37.481983 17.300596,30.986803 16.216604,25.968948 
	C15.572836,22.988914 13.994382,20.941345 10.773221,21.452408 
	C7.259780,22.009846 6.346094,24.630064 6.959037,27.828247 
	C7.740624,31.906372 8.649819,35.960041 9.737464,40.825008 
M44.642872,63.875755 
	C44.779476,65.047638 44.916077,66.219513 45.106411,67.852341 
	C49.230701,64.988869 52.800014,62.510719 57.123386,59.509029 
	C57.123386,73.395821 57.123386,86.152290 57.123386,99.166328 
	C59.079224,99.048103 60.652073,98.953026 62.031609,98.869644 
	C62.031609,83.508202 62.031609,68.596710 62.031609,53.363846 
	C54.061737,53.244625 49.606369,58.559750 44.642872,63.875755 
z"/>
<path fill="#EBEBEC" opacity="1.000000" stroke="none" 
	d="
M89.943016,136.140564 
	C116.142624,130.429947 133.534607,111.624031 137.582489,85.022560 
	C141.093338,61.950409 128.340332,36.441402 107.220230,24.290855 
	C86.309128,12.260543 58.851528,13.362967 41.701817,27.391598 
	C44.774151,28.073206 47.404324,28.668934 50.040207,29.238245 
	C52.989513,29.875250 55.178890,31.477997 54.566040,34.680988 
	C53.943523,37.934544 51.639957,39.223549 48.190845,38.456326 
	C42.347996,37.156639 36.386013,36.322285 30.637465,34.709915 
	C28.814194,34.198517 26.648190,32.080204 26.128569,30.269732 
	C24.436050,24.372635 23.397890,18.284853 22.177103,12.256440 
	C21.549402,9.156757 22.810432,6.800011 25.871105,6.202119 
	C28.981276,5.594557 30.830818,7.398800 31.446930,10.513500 
	C32.084362,13.735964 32.838066,16.935427 33.393066,19.469822 
	C42.294655,15.767282 50.796288,11.061015 59.905403,8.647541 
	C96.681244,-1.096279 135.461060,22.562300 145.058640,59.960640 
	C154.656509,97.360138 132.887115,134.671646 95.776878,144.426727 
	C52.704803,155.748993 9.014520,123.269165 7.202517,78.603752 
	C7.062391,75.149681 7.540514,71.766907 11.634352,71.569466 
	C16.093676,71.354401 16.597408,74.886215 16.790316,78.503426 
	C18.795553,116.103394 53.266640,143.423386 89.943016,136.140564 
z"/>
<path fill="#F2F3F3" opacity="1.000000" stroke="none" 
	d="
M89.996979,52.777039 
	C97.963173,52.906841 102.487617,57.230980 104.826859,63.843098 
	C107.809258,72.273186 107.645653,80.907570 104.687286,89.334503 
	C102.388847,95.881653 96.763229,99.875237 90.450829,100.002785 
	C83.539688,100.142433 78.155136,96.597542 75.463402,89.722160 
	C71.976173,80.814903 72.039772,71.722572 75.482307,62.880741 
	C77.889824,56.697258 82.542572,52.901546 89.996979,52.777039 
M100.501289,82.665009 
	C99.923462,76.476540 99.873734,70.174431 98.575409,64.140999 
	C97.759102,60.347569 94.495270,57.828697 90.024666,57.862484 
	C85.385727,57.897549 82.021194,60.452229 81.189606,64.501823 
	C79.947266,70.551674 79.091255,76.926064 79.611984,83.030945 
	C80.268990,90.733383 84.736275,94.963814 89.969040,94.979065 
	C95.168610,94.994217 98.331131,91.479324 100.501289,82.665009 
z"/>
<path fill="#EAEAEA" opacity="1.000000" stroke="none" 
	d="
M9.620737,40.424629 
	C8.649819,35.960041 7.740624,31.906372 6.959037,27.828247 
	C6.346094,24.630064 7.259780,22.009846 10.773221,21.452408 
	C13.994382,20.941345 15.572836,22.988914 16.216604,25.968948 
	C17.300596,30.986803 16.949568,37.481983 20.011221,40.576653 
	C23.066944,43.665321 29.566969,43.365410 34.567726,44.503887 
	C37.708641,45.218956 39.927429,46.743191 39.121208,50.334682 
	C38.318436,53.910797 35.604885,54.355145 32.510349,53.712593 
	C28.281395,52.834499 24.068611,51.877079 19.833975,51.028095 
	C11.313642,49.319901 11.309480,49.340660 9.620737,40.424629 
z"/>
<path fill="#F9F9FA" opacity="1.000000" stroke="none" 
	d="
M44.667915,63.459023 
	C49.606369,58.559750 54.061737,53.244625 62.031609,53.363846 
	C62.031609,68.596710 62.031609,83.508202 62.031609,98.869644 
	C60.652073,98.953026 59.079224,99.048103 57.123386,99.166328 
	C57.123386,86.152290 57.123386,73.395821 57.123386,59.509029 
	C52.800014,62.510719 49.230701,64.988869 45.106411,67.852341 
	C44.916077,66.219513 44.779476,65.047638 44.667915,63.459023 
z"/>
<path fill="#040404" opacity="1.000000" stroke="none" 
	d="
M100.403275,83.078087 
	C98.331131,91.479324 95.168610,94.994217 89.969040,94.979065 
	C84.736275,94.963814 80.268990,90.733383 79.611984,83.030945 
	C79.091255,76.926064 79.947266,70.551674 81.189606,64.501823 
	C82.021194,60.452229 85.385727,57.897549 90.024666,57.862484 
	C94.495270,57.828697 97.759102,60.347569 98.575409,64.140999 
	C99.873734,70.174431 99.923462,76.476540 100.403275,83.078087 
z"/>
</svg>