<svg version="1.1" id="Layer_1" xmlns="http://www.w3.org/2000/svg" xmlns:xlink="http://www.w3.org/1999/xlink" x="0px" y="0px"
	 width="100%" viewBox="0 0 148 152" enable-background="new 0 0 148 152" xml:space="preserve">
<path fill="transparent" opacity="1.000000" stroke="none" 
	d="
M149.000000,59.000000 
	C149.000000,90.666664 149.000000,121.833336 149.000000,153.000000 
	C99.666664,153.000000 50.333332,153.000000 1.000000,153.000000 
	C1.000000,102.333336 1.000000,51.666668 1.000000,1.000000 
	C50.333332,1.000000 99.666664,1.000000 149.000000,1.000000 
	C149.000000,20.166666 149.000000,39.333332 149.000000,59.000000 
M57.842697,139.935425 
	C31.470373,131.944122 14.721442,111.588348 13.091089,85.546669 
	C11.525328,60.536716 26.289143,36.372059 49.584263,25.816521 
	C69.359825,16.855772 96.731285,19.570477 109.134834,31.909338 
	C106.268944,32.562729 103.571838,33.304848 100.827820,33.770378 
	C97.550507,34.326374 96.077705,36.338898 96.605751,39.369701 
	C97.163658,42.571918 99.612190,43.555904 102.653091,42.935192 
	C108.682999,41.704357 114.748306,40.590706 120.688057,39.011421 
	C122.303108,38.582005 124.370697,36.891243 124.774879,35.387985 
	C126.456406,29.133987 127.903336,22.770287 128.697281,16.355366 
	C128.909500,14.640607 126.503113,12.601754 125.298904,10.711691 
	C123.468613,11.939281 120.758377,12.774326 119.997856,14.479141 
	C118.573685,17.671621 118.279137,21.368031 117.424973,25.264034 
	C115.206474,23.843821 113.426781,22.677799 111.621490,21.552839 
	C86.153084,5.682283 53.220802,7.885025 30.045076,27.003275 
	C6.113955,46.744675 -2.616853,79.072769 8.382497,107.214645 
	C18.425335,132.909271 43.597809,150.732254 70.286919,151.045135 
	C100.749565,151.402252 127.251686,134.742203 138.016312,107.352890 
	C141.236237,99.160179 142.146439,90.023109 143.750565,81.252075 
	C144.300858,78.243149 142.272141,75.622093 139.173172,76.204292 
	C137.387390,76.539787 135.644547,79.027176 134.633270,80.942444 
	C133.849152,82.427467 134.242081,84.528137 134.089355,86.353264 
	C131.047775,122.698166 94.111122,148.988388 57.842697,139.935425 
M77.110123,99.376900 
	C86.298515,108.032433 98.762466,105.410172 103.112610,93.661888 
	C106.265533,85.146919 106.195457,76.413185 103.101616,67.835106 
	C100.742706,61.294743 96.095978,57.480217 89.022293,57.075706 
	C82.620262,56.709602 76.807144,60.202709 74.290924,66.887657 
	C70.198280,77.760757 70.072990,88.595390 77.110123,99.376900 
M132.540268,41.939911 
	C132.358322,44.791439 130.980301,46.248035 128.005936,46.649685 
	C124.235603,47.158813 120.540779,48.203720 116.791855,48.901951 
	C113.637703,49.489403 111.316750,50.844505 111.926422,54.468258 
	C112.532211,58.069008 115.107697,58.759796 118.306068,58.096058 
	C124.150848,56.883121 130.045029,55.859276 135.810867,54.346069 
	C137.433899,53.920113 139.557663,52.297180 139.949875,50.823532 
	C141.652634,44.425842 143.111450,37.919277 143.930603,31.361311 
	C144.135101,29.724186 141.627365,27.748278 140.366211,25.928080 
	C138.581772,27.256964 135.904266,28.229601 135.201965,29.990152 
	C133.812851,33.472527 133.515808,37.390530 132.540268,41.939911 
M61.034412,92.469482 
	C61.034412,81.024544 61.034412,69.579605 61.034412,58.172661 
	C51.776962,57.576561 42.049053,65.615280 43.927979,72.207222 
	C47.549088,69.648827 51.102406,67.138336 55.603897,63.957932 
	C55.603897,77.920029 55.603897,90.626610 55.603897,103.665428 
	C57.747616,103.545189 59.307125,103.457726 61.034393,103.360847 
	C61.034393,99.761230 61.034393,96.608955 61.034412,92.469482 
z"/>
<path fill="#EAEAEB" opacity="1.000000" stroke="none" 
	d="
M58.258568,139.984497 
	C94.111122,148.988388 131.047775,122.698166 134.089355,86.353264 
	C134.242081,84.528137 133.849152,82.427467 134.633270,80.942444 
	C135.644547,79.027176 137.387390,76.539787 139.173172,76.204292 
	C142.272141,75.622093 144.300858,78.243149 143.750565,81.252075 
	C142.146439,90.023109 141.236237,99.160179 138.016312,107.352890 
	C127.251686,134.742203 100.749565,151.402252 70.286919,151.045135 
	C43.597809,150.732254 18.425335,132.909271 8.382497,107.214645 
	C-2.616853,79.072769 6.113955,46.744675 30.045076,27.003275 
	C53.220802,7.885025 86.153084,5.682283 111.621490,21.552839 
	C113.426781,22.677799 115.206474,23.843821 117.424973,25.264034 
	C118.279137,21.368031 118.573685,17.671621 119.997856,14.479141 
	C120.758377,12.774326 123.468613,11.939281 125.298904,10.711691 
	C126.503113,12.601754 128.909500,14.640607 128.697281,16.355366 
	C127.903336,22.770287 126.456406,29.133987 124.774879,35.387985 
	C124.370697,36.891243 122.303108,38.582005 120.688057,39.011421 
	C114.748306,40.590706 108.682999,41.704357 102.653091,42.935192 
	C99.612190,43.555904 97.163658,42.571918 96.605751,39.369701 
	C96.077705,36.338898 97.550507,34.326374 100.827820,33.770378 
	C103.571838,33.304848 106.268944,32.562729 109.134834,31.909338 
	C96.731285,19.570477 69.359825,16.855772 49.584263,25.816521 
	C26.289143,36.372059 11.525328,60.536716 13.091089,85.546669 
	C14.721442,111.588348 31.470373,131.944122 58.258568,139.984497 
z"/>
<path fill="#EFF0F0" opacity="1.000000" stroke="none" 
	d="
M76.881310,99.089890 
	C70.072990,88.595390 70.198280,77.760757 74.290924,66.887657 
	C76.807144,60.202709 82.620262,56.709602 89.022293,57.075706 
	C96.095978,57.480217 100.742706,61.294743 103.101616,67.835106 
	C106.195457,76.413185 106.265533,85.146919 103.112610,93.661888 
	C98.762466,105.410172 86.298515,108.032433 76.881310,99.089890 
M77.582764,83.331810 
	C78.360710,86.702553 78.827438,90.186165 79.998207,93.414452 
	C81.352097,97.147659 84.377296,99.266121 88.434753,99.334099 
	C92.530159,99.402718 95.478111,97.242386 96.993996,93.579735 
	C100.519119,85.062424 100.542427,76.406105 96.936920,67.919640 
	C95.401543,64.305748 92.364464,62.120773 88.288643,62.251213 
	C84.272636,62.379738 81.014755,64.463814 79.961128,68.290558 
	C78.702225,72.862839 78.332413,77.679924 77.582764,83.331810 
z"/>
<path fill="#EAEAEB" opacity="1.000000" stroke="none" 
	d="
M132.653778,41.534172 
	C133.515808,37.390530 133.812851,33.472527 135.201965,29.990152 
	C135.904266,28.229601 138.581772,27.256964 140.366211,25.928080 
	C141.627365,27.748278 144.135101,29.724186 143.930603,31.361311 
	C143.111450,37.919277 141.652634,44.425842 139.949875,50.823532 
	C139.557663,52.297180 137.433899,53.920113 135.810867,54.346069 
	C130.045029,55.859276 124.150848,56.883121 118.306068,58.096058 
	C115.107697,58.759796 112.532211,58.069008 111.926422,54.468258 
	C111.316750,50.844505 113.637703,49.489403 116.791855,48.901951 
	C120.540779,48.203720 124.235603,47.158813 128.005936,46.649685 
	C130.980301,46.248035 132.358322,44.791439 132.653778,41.534172 
z"/>
<path fill="#EAEBEB" opacity="1.000000" stroke="none" 
	d="
M61.034401,92.963089 
	C61.034393,96.608955 61.034393,99.761230 61.034393,103.360847 
	C59.307125,103.457726 57.747616,103.545189 55.603897,103.665428 
	C55.603897,90.626610 55.603897,77.920029 55.603897,63.957932 
	C51.102406,67.138336 47.549088,69.648827 43.927979,72.207222 
	C42.049053,65.615280 51.776962,57.576561 61.034412,58.172661 
	C61.034412,69.579605 61.034412,81.024544 61.034401,92.963089 
z"/>
<path fill="transparent" opacity="1.000000" stroke="none" 
	d="
M77.580124,82.861389 
	C78.332413,77.679924 78.702225,72.862839 79.961128,68.290558 
	C81.014755,64.463814 84.272636,62.379738 88.288643,62.251213 
	C92.364464,62.120773 95.401543,64.305748 96.936920,67.919640 
	C100.542427,76.406105 100.519119,85.062424 96.993996,93.579735 
	C95.478111,97.242386 92.530159,99.402718 88.434753,99.334099 
	C84.377296,99.266121 81.352097,97.147659 79.998207,93.414452 
	C78.827438,90.186165 78.360710,86.702553 77.580124,82.861389 
z"/>
</svg>