<svg version="1.1" id="Layer_1" xmlns="http://www.w3.org/2000/svg" xmlns:xlink="http://www.w3.org/1999/xlink" x="0px" y="0px"
	 width="100%" viewBox="0 0 233 234" enable-background="new 0 0 233 234" xml:space="preserve">
<path fill="transparent" opacity="1.000000" stroke="none" 
	d="
M1.000000,107.000000 
	C1.000000,79.979103 1.000000,52.958210 1.468550,25.468628 
	C7.243076,24.999832 12.550043,25.055988 17.854372,24.962511 
	C19.291597,24.937183 21.451658,24.955406 22.028971,24.104696 
	C24.722460,20.135645 28.610670,21.022453 32.308144,21.009222 
	C40.598614,20.979553 48.889374,20.978092 57.179741,21.019785 
	C58.706535,21.027464 60.232029,21.292561 61.758125,21.438843 
	C61.872337,21.913471 61.986549,22.388100 62.100758,22.862728 
	C60.830639,23.563337 59.483109,24.155859 58.311962,24.994654 
	C57.117455,25.850185 56.096306,26.947763 54.539474,28.036545 
	C50.754028,28.140985 47.425941,28.069630 44.103203,28.171986 
	C37.318901,28.380980 30.516235,28.442551 23.762877,29.038166 
	C19.739870,29.392979 16.855366,32.433331 16.695547,36.192230 
	C16.555338,39.489922 17.417620,43.764229 19.541157,45.956646 
	C21.589046,48.070965 25.793703,48.765770 29.091875,48.877956 
	C40.384212,49.262058 51.694584,49.115974 62.998737,49.569138 
	C62.827148,53.223274 63.500050,56.215374 67.206467,56.794285 
	C70.183037,57.259205 70.818359,58.778706 71.157173,61.439903 
	C71.669487,65.463753 72.180161,69.607979 77.322311,70.991875 
	C81.037056,71.991615 85.013092,73.065765 88.068695,75.237694 
	C93.372200,79.007423 98.895164,81.355682 105.385696,81.651581 
	C114.315231,82.058662 123.280869,82.684166 131.144730,77.213715 
	C134.654648,74.772064 136.273987,70.818497 134.535065,67.218002 
	C133.643753,65.372467 129.652222,65.024216 126.964600,63.557796 
	C126.932320,60.411102 126.997215,57.705898 127.492477,55.000301 
	C134.375259,54.663074 140.892792,54.762924 147.254028,53.814518 
	C150.696075,53.301334 155.391174,54.066216 157.465607,49.097061 
	C167.285233,49.072140 176.641663,49.121979 186.020538,49.572765 
	C187.484009,50.649067 188.866547,51.653893 190.379761,51.922474 
	C192.643250,52.324215 195.802383,51.284122 197.172592,52.475967 
	C202.451050,57.067352 209.234619,56.426369 215.135422,58.636658 
	C217.041382,59.350590 218.790756,60.644119 220.412277,61.925060 
	C224.996841,65.546669 229.478073,69.299103 234.000000,73.000000 
	C234.000000,125.020897 234.000000,177.041794 233.550186,229.531128 
	C232.437073,229.999512 231.770187,229.954437 231.111038,230.006760 
	C226.956757,230.336517 223.568420,230.186554 223.626984,224.340805 
	C223.641266,222.916641 220.540314,220.616928 218.562958,220.206223 
	C215.223495,219.512589 211.579498,219.602036 208.168900,220.093414 
	C202.981171,220.840805 200.752930,218.345612 200.162201,213.780136 
	C199.668793,209.966995 197.488602,208.806061 193.990417,208.973053 
	C192.010773,209.067566 189.988205,209.088715 188.038818,208.790619 
	C185.342545,208.378296 183.352142,207.099762 184.332428,203.684433 
	C195.347610,203.391647 205.991653,203.484421 216.609802,203.004547 
	C221.772202,202.771225 225.043518,198.756195 225.322403,193.770874 
	C225.595459,188.889496 222.672760,184.747299 217.742554,183.534393 
	C215.525589,182.988968 213.159744,182.884583 210.859390,182.868195 
	C193.238342,182.742538 175.616791,182.687866 157.980377,182.257095 
	C157.040329,180.903870 156.148026,179.871643 155.180832,178.915085 
	C154.264648,178.008972 152.708328,177.341095 152.411530,176.291794 
	C151.380692,172.647339 150.445557,168.914978 150.076736,165.156891 
	C149.329941,157.547516 147.759369,155.823151 139.656876,155.033417 
	C138.665909,154.936813 137.568909,155.257874 136.675522,154.944702 
	C132.590225,153.512634 126.317986,155.836334 125.511574,148.526062 
	C125.443825,147.911880 123.838150,147.591293 123.241714,146.885300 
	C122.050911,145.475754 120.478630,144.028946 120.092262,142.359528 
	C118.065254,133.601196 116.655327,132.181458 107.728706,132.046432 
	C103.776512,131.986664 101.751518,130.466034 102.453873,126.291611 
	C110.232750,126.181137 117.558304,126.350067 124.870674,126.112633 
	C132.061783,125.879143 136.464066,119.942291 134.836105,113.152977 
	C133.664474,108.266777 129.353943,105.508759 122.469093,105.501762 
	C91.692421,105.470482 60.915482,105.442108 30.139292,105.569733 
	C26.906357,105.583138 23.677706,106.629868 19.953449,107.142883 
	C13.306554,107.059052 7.153277,107.029526 1.000000,107.000000 
M172.949158,81.273186 
	C164.394684,77.967690 157.900757,82.198990 157.850510,91.312767 
	C157.760651,107.611473 157.801178,123.911140 157.844574,140.210251 
	C157.863129,147.183350 162.098373,151.985825 167.989548,151.909866 
	C174.058655,151.831589 178.094742,147.201645 178.160477,140.166656 
	C178.203308,135.583420 178.168549,130.999451 178.168549,126.172127 
	C180.889603,126.172127 182.870789,126.173645 184.851959,126.171860 
	C195.003311,126.162697 205.156494,126.263382 215.305222,126.095299 
	C220.222061,126.013855 224.073364,122.720749 225.016403,118.423569 
	C226.112946,113.427071 224.268494,108.811676 219.671722,106.857811 
	C217.186951,105.801651 214.213089,105.579620 211.452652,105.544319 
	C200.515900,105.404457 189.576309,105.486824 178.167862,105.486824 
	C178.167862,100.330666 178.744797,95.608841 177.975113,91.117805 
	C177.415588,87.852997 175.076065,84.893242 172.949158,81.273186 
z"/>
<path fill="transparent" opacity="1.000000" stroke="none" 
	d="
M183.950623,203.834320 
	C183.352142,207.099762 185.342545,208.378296 188.038818,208.790619 
	C189.988205,209.088715 192.010773,209.067566 193.990417,208.973053 
	C197.488602,208.806061 199.668793,209.966995 200.162201,213.780136 
	C200.752930,218.345612 202.981171,220.840805 208.168900,220.093414 
	C211.579498,219.602036 215.223495,219.512589 218.562958,220.206223 
	C220.540314,220.616928 223.641266,222.916641 223.626984,224.340805 
	C223.568420,230.186554 226.956757,230.336517 231.111038,230.006760 
	C231.770187,229.954437 232.437073,229.999512 233.550186,229.999786 
	C234.000000,231.664673 234.000000,233.329346 234.000000,234.995514 
	C156.428253,234.997009 78.856514,234.997009 1.000000,234.997009 
	C1.000000,192.646194 1.000000,150.291763 1.000000,107.468658 
	C7.153277,107.029526 13.306554,107.059052 19.761326,107.443817 
	C14.916300,113.395454 14.561494,119.847145 19.925632,123.665367 
	C22.374407,125.408424 26.065397,126.044548 29.204704,126.077866 
	C53.466450,126.335365 77.731064,126.322304 101.994789,126.393074 
	C101.751518,130.466034 103.776512,131.986664 107.728706,132.046432 
	C116.655327,132.181458 118.065254,133.601196 120.092262,142.359528 
	C120.478630,144.028946 122.050911,145.475754 123.241714,146.885300 
	C123.838150,147.591293 125.443825,147.911880 125.511574,148.526062 
	C126.317986,155.836334 132.590225,153.512634 136.675522,154.944702 
	C137.568909,155.257874 138.665909,154.936813 139.656876,155.033417 
	C147.759369,155.823151 149.329941,157.547516 150.076736,165.156891 
	C150.445557,168.914978 151.380692,172.647339 152.411530,176.291794 
	C152.708328,177.341095 154.264648,178.008972 155.180832,178.915085 
	C156.148026,179.871643 157.040329,180.903870 157.520935,182.353851 
	C135.667206,182.804657 114.257912,182.804657 92.377174,182.804657 
	C92.377174,177.193436 92.684525,172.193329 92.298851,167.247269 
	C91.823982,161.157364 87.442314,157.148880 82.046234,157.170471 
	C76.267479,157.193619 71.959152,161.395889 71.895210,167.867599 
	C71.729134,184.674698 71.740219,201.486084 71.972038,218.291748 
	C72.005653,220.728622 73.206497,223.444778 74.632347,225.501160 
	C77.061333,229.004242 80.941475,229.719070 84.875969,228.652466 
	C88.859047,227.572723 91.729126,224.802063 92.024979,220.620468 
	C92.418091,215.064285 92.121956,209.459351 92.121956,203.504349 
	C94.975433,203.504349 96.775024,203.504242 98.574615,203.504364 
	C118.389030,203.505753 138.203522,203.475372 158.017838,203.523331 
	C166.662308,203.544266 175.306366,203.725754 183.950623,203.834320 
M28.945560,152.347824 
	C27.672749,153.106888 26.399935,153.865967 25.127123,154.625031 
	C30.140482,155.820557 30.986629,159.403885 31.910217,163.071533 
	C32.241657,164.387695 32.900627,166.127182 33.937374,166.674240 
	C38.991909,169.341339 43.894711,171.289810 50.196476,169.331589 
	C54.367260,168.035553 56.328728,166.837082 56.015461,162.543671 
	C55.812016,159.755356 55.903484,157.347763 59.714787,156.678787 
	C60.909096,156.469162 62.583160,153.821198 62.458225,152.431290 
	C62.250298,150.118088 62.267818,147.071381 58.205364,146.905655 
	C53.287888,146.705048 48.415833,145.365189 43.499069,145.178665 
	C34.942856,144.854080 31.418240,143.400055 28.945560,152.347824 
M18.026384,186.725418 
	C13.281653,193.128738 16.934195,203.357803 25.767448,203.394135 
	C30.407431,203.413223 35.076778,203.560928 39.681450,203.117111 
	C45.905716,202.517181 49.126884,198.626236 49.003609,192.643845 
	C48.889675,187.115189 45.400684,183.426056 39.257759,183.013214 
	C34.632973,182.702423 29.933994,182.673920 25.334162,183.153702 
	C22.965889,183.400696 20.741970,185.031754 18.026384,186.725418 
z"/>
<path fill="transparent" opacity="1.000000" stroke="none" 
	d="
M127.061790,63.999290 
	C129.652222,65.024216 133.643753,65.372467 134.535065,67.218002 
	C136.273987,70.818497 134.654648,74.772064 131.144730,77.213715 
	C123.280869,82.684166 114.315231,82.058662 105.385696,81.651581 
	C98.895164,81.355682 93.372200,79.007423 88.068695,75.237694 
	C85.013092,73.065765 81.037056,71.991615 77.322311,70.991875 
	C72.180161,69.607979 71.669487,65.463753 71.157173,61.439903 
	C70.818359,58.778706 70.183037,57.259205 67.206467,56.794285 
	C63.500050,56.215374 62.827148,53.223274 63.456337,49.492607 
	C67.385437,48.978275 70.884186,49.194340 74.323692,48.838238 
	C79.860260,48.265030 83.744843,43.851704 83.803413,38.566624 
	C83.858673,33.580200 80.299927,29.247623 74.779327,28.715952 
	C68.221863,28.084425 61.595669,28.166515 54.999256,27.939367 
	C56.096306,26.947763 57.117455,25.850185 58.311962,24.994654 
	C59.483109,24.155859 60.830639,23.563337 62.100758,22.862728 
	C61.986549,22.388100 61.872337,21.913471 61.758125,21.438843 
	C60.232029,21.292561 58.706535,21.027464 57.179741,21.019785 
	C48.889374,20.978092 40.598614,20.979553 32.308144,21.009222 
	C28.610670,21.022453 24.722460,20.135645 22.028971,24.104696 
	C21.451658,24.955406 19.291597,24.937183 17.854372,24.962511 
	C12.550043,25.055988 7.243076,24.999832 1.468550,24.999969 
	C1.000000,17.017107 1.000000,9.034216 1.000000,1.000000 
	C61.020885,1.000000 121.041786,1.000000 181.539703,1.393877 
	C183.294464,7.836212 184.514709,13.885384 191.435211,16.344824 
	C192.215225,16.622034 192.546219,17.977959 193.300858,18.548973 
	C194.987167,19.824963 196.698212,21.163393 198.600800,22.037590 
	C202.009659,23.603886 206.851791,22.776737 207.539276,28.035398 
	C180.363007,28.132450 153.646515,28.132450 126.764816,28.132450 
	C126.764816,22.731947 127.048103,18.051140 126.698692,13.418052 
	C126.169426,6.400382 122.054520,2.564381 115.969887,2.831879 
	C109.935966,3.097148 106.249435,7.342004 106.169434,14.284672 
	C106.073524,22.608862 106.038940,30.934132 106.038666,39.258938 
	C106.038406,47.250645 105.972931,55.246391 106.198349,63.232960 
	C106.438332,71.735870 112.618881,76.485481 119.975647,73.985764 
	C124.675674,72.388763 126.040039,68.281464 127.061790,63.999290 
z"/>
<path fill="transparent" opacity="1.000000" stroke="none" 
	d="
M207.999084,27.938347 
	C206.851791,22.776737 202.009659,23.603886 198.600800,22.037590 
	C196.698212,21.163393 194.987167,19.824963 193.300858,18.548973 
	C192.546219,17.977959 192.215225,16.622034 191.435211,16.344824 
	C184.514709,13.885384 183.294464,7.836212 182.008362,1.393877 
	C199.250488,1.000000 216.500977,1.000000 234.000000,1.000000 
	C234.000000,14.019841 234.000000,27.041262 233.608002,40.517418 
	C232.488510,40.280598 231.158920,39.612068 231.131454,38.893742 
	C230.956299,34.313496 228.336456,33.483826 224.263550,33.969528 
	C221.584778,32.049149 219.375961,29.757135 216.688202,28.772514 
	C214.044724,27.804111 210.915283,28.162279 207.999084,27.938347 
z"/>
<path fill="transparent" opacity="1.000000" stroke="none" 
	d="
M224.523788,34.170406 
	C228.336456,33.483826 230.956299,34.313496 231.131454,38.893742 
	C231.158920,39.612068 232.488510,40.280598 233.608002,40.986076 
	C234.000000,51.354229 234.000000,61.708454 234.000000,72.531342 
	C229.478073,69.299103 224.996841,65.546669 220.412277,61.925060 
	C218.790756,60.644119 217.041382,59.350590 215.135422,58.636658 
	C209.234619,56.426369 202.451050,57.067352 197.172592,52.475967 
	C195.802383,51.284122 192.643250,52.324215 190.379761,51.922474 
	C188.866547,51.653893 187.484009,50.649067 186.483765,49.496071 
	C195.368835,49.014286 203.813141,49.017212 212.257401,49.004181 
	C222.432404,48.988480 226.398422,44.185890 224.523788,34.170406 
z"/>
<path fill="#FEFEFE" opacity="1.000000" stroke="none" 
	d="
M184.332428,203.684448 
	C175.306366,203.725754 166.662308,203.544266 158.017838,203.523331 
	C138.203522,203.475372 118.389030,203.505753 98.574615,203.504364 
	C96.775024,203.504242 94.975433,203.504349 92.121956,203.504349 
	C92.121956,209.459351 92.418091,215.064285 92.024979,220.620468 
	C91.729126,224.802063 88.859047,227.572723 84.875969,228.652466 
	C80.941475,229.719070 77.061333,229.004242 74.632347,225.501160 
	C73.206497,223.444778 72.005653,220.728622 71.972038,218.291748 
	C71.740219,201.486084 71.729134,184.674698 71.895210,167.867599 
	C71.959152,161.395889 76.267479,157.193619 82.046234,157.170471 
	C87.442314,157.148880 91.823982,161.157364 92.298851,167.247269 
	C92.684525,172.193329 92.377174,177.193436 92.377174,182.804657 
	C114.257912,182.804657 135.667206,182.804657 157.535950,182.707901 
	C175.616791,182.687866 193.238342,182.742538 210.859390,182.868195 
	C213.159744,182.884583 215.525589,182.988968 217.742554,183.534393 
	C222.672760,184.747299 225.595459,188.889496 225.322403,193.770874 
	C225.043518,198.756195 221.772202,202.771225 216.609802,203.004547 
	C205.991653,203.484421 195.347610,203.391647 184.332428,203.684448 
z"/>
<path fill="#FCFCFC" opacity="1.000000" stroke="none" 
	d="
M224.263550,33.969528 
	C226.398422,44.185890 222.432404,48.988480 212.257401,49.004181 
	C203.813141,49.017212 195.368835,49.014286 186.461334,49.095123 
	C176.641663,49.121979 167.285233,49.072140 157.002319,49.020367 
	C146.367615,49.018433 136.659378,49.018433 126.768921,49.018433 
	C126.884819,51.383247 126.973465,53.191975 127.062119,55.000698 
	C126.997215,57.705898 126.932320,60.411102 126.964600,63.557796 
	C126.040039,68.281464 124.675674,72.388763 119.975647,73.985764 
	C112.618881,76.485481 106.438332,71.735870 106.198349,63.232960 
	C105.972931,55.246391 106.038406,47.250645 106.038666,39.258938 
	C106.038940,30.934132 106.073524,22.608862 106.169434,14.284672 
	C106.249435,7.342004 109.935966,3.097148 115.969887,2.831879 
	C122.054520,2.564381 126.169426,6.400382 126.698692,13.418052 
	C127.048103,18.051140 126.764816,22.731947 126.764816,28.132450 
	C153.646515,28.132450 180.363007,28.132450 207.539276,28.035398 
	C210.915283,28.162279 214.044724,27.804111 216.688202,28.772514 
	C219.375961,29.757135 221.584778,32.049149 224.263550,33.969528 
z"/>
<path fill="#FCFCFC" opacity="1.000000" stroke="none" 
	d="
M102.453873,126.291611 
	C77.731064,126.322304 53.466450,126.335365 29.204704,126.077866 
	C26.065397,126.044548 22.374407,125.408424 19.925632,123.665367 
	C14.561494,119.847145 14.916300,113.395454 20.254944,107.498123 
	C23.677706,106.629868 26.906357,105.583138 30.139292,105.569733 
	C60.915482,105.442108 91.692421,105.470482 122.469093,105.501762 
	C129.353943,105.508759 133.664474,108.266777 134.836105,113.152977 
	C136.464066,119.942291 132.061783,125.879143 124.870674,126.112633 
	C117.558304,126.350067 110.232750,126.181137 102.453873,126.291611 
z"/>
<path fill="#FCFCFC" opacity="1.000000" stroke="none" 
	d="
M173.239655,81.535332 
	C175.076065,84.893242 177.415588,87.852997 177.975113,91.117805 
	C178.744797,95.608841 178.167862,100.330666 178.167862,105.486824 
	C189.576309,105.486824 200.515900,105.404457 211.452652,105.544319 
	C214.213089,105.579620 217.186951,105.801651 219.671722,106.857811 
	C224.268494,108.811676 226.112946,113.427071 225.016403,118.423569 
	C224.073364,122.720749 220.222061,126.013855 215.305222,126.095299 
	C205.156494,126.263382 195.003311,126.162697 184.851959,126.171860 
	C182.870789,126.173645 180.889603,126.172127 178.168549,126.172127 
	C178.168549,130.999451 178.203308,135.583420 178.160477,140.166656 
	C178.094742,147.201645 174.058655,151.831589 167.989548,151.909866 
	C162.098373,151.985825 157.863129,147.183350 157.844574,140.210251 
	C157.801178,123.911140 157.760651,107.611473 157.850510,91.312767 
	C157.900757,82.198990 164.394684,77.967690 173.239655,81.535332 
z"/>
<path fill="#FCFCFC" opacity="1.000000" stroke="none" 
	d="
M54.539474,28.036545 
	C61.595669,28.166515 68.221863,28.084425 74.779327,28.715952 
	C80.299927,29.247623 83.858673,33.580200 83.803413,38.566624 
	C83.744843,43.851704 79.860260,48.265030 74.323692,48.838238 
	C70.884186,49.194340 67.385437,48.978275 63.455673,49.095554 
	C51.694584,49.115974 40.384212,49.262058 29.091875,48.877956 
	C25.793703,48.765770 21.589046,48.070965 19.541157,45.956646 
	C17.417620,43.764229 16.555338,39.489922 16.695547,36.192230 
	C16.855366,32.433331 19.739870,29.392979 23.762877,29.038166 
	C30.516235,28.442551 37.318901,28.380980 44.103203,28.171986 
	C47.425941,28.069630 50.754028,28.140985 54.539474,28.036545 
z"/>
<path fill="#0C1112" opacity="1.000000" stroke="none" 
	d="
M127.492477,55.000301 
	C126.973465,53.191975 126.884819,51.383247 126.768921,49.018433 
	C136.659378,49.018433 146.367615,49.018433 156.539124,49.095123 
	C155.391174,54.066216 150.696075,53.301334 147.254028,53.814518 
	C140.892792,54.762924 134.375259,54.663074 127.492477,55.000301 
z"/>
<path fill="transparent" opacity="1.000000" stroke="none" 
	d="
M29.199705,152.073776 
	C31.418240,143.400055 34.942856,144.854080 43.499069,145.178665 
	C48.415833,145.365189 53.287888,146.705048 58.205364,146.905655 
	C62.267818,147.071381 62.250298,150.118088 62.458225,152.431290 
	C62.583160,153.821198 60.909096,156.469162 59.714787,156.678787 
	C55.903484,157.347763 55.812016,159.755356 56.015461,162.543671 
	C56.328728,166.837082 54.367260,168.035553 50.196476,169.331589 
	C43.894711,171.289810 38.991909,169.341339 33.937374,166.674240 
	C32.900627,166.127182 32.241657,164.387695 31.910217,163.071533 
	C30.986629,159.403885 30.140482,155.820557 25.127123,154.625031 
	C26.399935,153.865967 27.672749,153.106888 29.199705,152.073776 
z"/>
<path fill="#FEFEFE" opacity="1.000000" stroke="none" 
	d="
M18.239605,186.381409 
	C20.741970,185.031754 22.965889,183.400696 25.334162,183.153702 
	C29.933994,182.673920 34.632973,182.702423 39.257759,183.013214 
	C45.400684,183.426056 48.889675,187.115189 49.003609,192.643845 
	C49.126884,198.626236 45.905716,202.517181 39.681450,203.117111 
	C35.076778,203.560928 30.407431,203.413223 25.767448,203.394135 
	C16.934195,203.357803 13.281653,193.128738 18.239605,186.381409 
z"/>
</svg>