<svg version="1.1" id="Layer_1" xmlns="http://www.w3.org/2000/svg" xmlns:xlink="http://www.w3.org/1999/xlink" x="0px" y="0px"
	 width="100%" viewBox="0 0 147 144" enable-background="new 0 0 147 144" xml:space="preserve">
<path fill="transparent" opacity="1.000000" stroke="none" 
	d="
M85.000000,145.000000 
	C56.690594,145.000000 28.881186,145.000000 1.035889,145.000000 
	C1.035889,97.065208 1.035889,49.130386 1.035889,1.097782 
	C49.892517,1.097782 98.785294,1.097782 147.839035,1.097782 
	C147.839035,48.999569 147.839035,96.999733 147.839035,145.000000 
	C127.130760,145.000000 106.315376,145.000000 85.000000,145.000000 
M39.624958,116.111885 
	C60.195019,101.569374 80.765083,87.026855 101.830254,72.134308 
	C70.635757,50.123692 39.764263,28.340986 8.450346,6.246109 
	C8.450346,50.726028 8.450346,94.052879 8.450346,138.013840 
	C18.966076,130.609406 28.990257,123.551079 39.624958,116.111885 
M140.174042,36.500065 
	C140.174042,26.421619 140.174042,16.343174 140.174042,6.307882 
	C132.546829,6.307882 125.489906,6.307882 118.383873,6.307882 
	C118.383873,50.317394 118.383873,94.012894 118.383873,137.938538 
	C125.662262,137.938538 132.717056,137.938538 140.174042,137.938538 
	C140.174042,104.308838 140.174042,70.904457 140.174042,36.500065 
z"/>
<path fill="#FCFCFC" opacity="1.000000" stroke="none" 
	d="
M39.319698,116.302322 
	C28.990257,123.551079 18.966076,130.609406 8.450346,138.013840 
	C8.450346,94.052879 8.450346,50.726028 8.450346,6.246109 
	C39.764263,28.340986 70.635757,50.123692 101.830254,72.134308 
	C80.765083,87.026855 60.195019,101.569374 39.319698,116.302322 
z"/>
<path fill="#FCFCFC" opacity="1.000000" stroke="none" 
	d="
M140.174042,37.000069 
	C140.174042,70.904457 140.174042,104.308838 140.174042,137.938538 
	C132.717056,137.938538 125.662262,137.938538 118.383873,137.938538 
	C118.383873,94.012894 118.383873,50.317394 118.383873,6.307882 
	C125.489906,6.307882 132.546829,6.307882 140.174042,6.307882 
	C140.174042,16.343174 140.174042,26.421619 140.174042,37.000069 
z"/>
</svg>