<svg version="1.1" id="Layer_1" xmlns="http://www.w3.org/2000/svg" xmlns:xlink="http://www.w3.org/1999/xlink" x="0px" y="0px"
	 width="100%" viewBox="0 0 205 197" enable-background="new 0 0 205 197" xml:space="preserve">
<path fill="#020507" opacity="1.000000" stroke="none" 
	d="
M134.000000,1.000000 
	C157.979553,1.000000 181.959122,1.000000 205.969330,1.000000 
	C205.969330,66.590286 205.969330,132.180603 205.969330,197.885452 
	C137.666794,197.885452 69.333427,197.885452 1.000000,197.885452 
	C1.000000,184.915176 1.000000,171.926239 1.406285,158.468475 
	C7.346515,158.326645 7.592227,154.300735 7.991546,150.447632 
	C8.684093,143.765137 9.335999,137.078430 10.464310,130.296814 
	C22.582621,130.190979 34.246120,130.007797 45.896862,130.312485 
	C48.367771,130.377090 51.384354,131.617615 53.145203,133.341919 
	C68.733604,148.606888 84.092232,164.106430 99.530823,179.524567 
	C100.716599,180.708755 101.994682,181.800522 103.840744,183.496445 
	C103.840744,150.549515 103.821007,118.752815 103.850677,86.956146 
	C103.862167,74.637733 103.985474,62.319412 104.473862,50.000813 
	C108.978912,49.981075 112.189766,50.449993 112.333084,55.993671 
	C112.429718,59.731747 116.020302,60.948463 119.866676,59.457691 
	C121.499672,58.824780 123.243561,58.477989 125.033539,58.461029 
	C125.130013,86.119965 125.130013,113.319038 125.130013,140.698761 
	C141.080139,134.483231 153.112366,114.051598 151.772903,96.302040 
	C150.405090,78.176765 141.687805,64.800453 126.053711,55.478561 
	C127.222931,53.545704 128.030167,51.080986 129.522949,50.552406 
	C132.861954,49.370106 132.842468,47.159409 133.089417,44.373032 
	C133.488693,39.867619 134.441544,35.411266 135.512939,30.962852 
	C139.091034,32.981308 142.334229,34.943535 145.539932,36.965191 
	C176.053284,56.208241 187.026581,97.390823 171.244156,130.307755 
	C162.303513,148.955002 147.899033,161.825760 128.373764,168.932602 
	C127.057541,169.411697 125.361649,171.158005 125.300735,172.387207 
	C124.989296,178.672745 125.156776,184.981995 125.156776,192.678177 
	C133.715515,189.168259 141.836151,186.692230 149.124207,182.697296 
	C176.665222,167.600815 193.375732,144.360474 198.487823,113.326920 
	C202.697815,87.769455 196.838135,64.296295 182.061111,43.021576 
	C170.019257,25.684690 153.518158,14.365814 133.968811,6.690541 
	C133.987473,4.501855 133.993729,2.750928 134.000000,1.000000 
z"/>
<path fill="#05090B" opacity="1.000000" stroke="none" 
	d="
M124.937057,58.001167 
	C123.243561,58.477989 121.499672,58.824780 119.866676,59.457691 
	C116.020302,60.948463 112.429718,59.731747 112.333084,55.993671 
	C112.189766,50.449993 108.978912,49.981075 104.372391,49.541729 
	C103.854889,37.542015 103.854889,26.001150 103.854889,13.403323 
	C101.785538,15.354541 100.487305,16.529640 99.243034,17.759338 
	C83.660110,33.159729 68.109306,48.592850 52.457695,63.923061 
	C51.313335,65.043922 49.474838,66.003914 47.922939,66.061264 
	C42.624146,66.257088 37.309204,66.015938 32.000462,65.540840 
	C32.820847,63.536469 33.435768,61.775986 34.511196,60.366982 
	C36.007526,58.406521 37.893417,56.748268 39.521996,54.881641 
	C40.243889,54.054230 40.704594,53.004910 41.352829,52.106052 
	C42.823772,50.066414 44.963161,48.260262 45.697777,45.992210 
	C47.043865,41.836308 46.838337,37.112823 51.516312,34.592331 
	C52.314331,34.162357 52.802681,32.581150 52.884785,31.490431 
	C53.524979,22.985998 61.010441,19.792437 65.716980,14.383256 
	C69.038078,10.566349 71.984634,6.531936 76.382385,3.809923 
	C76.950386,3.458353 76.811462,1.964644 77.000000,1.000000 
	C95.687561,1.000000 114.375122,1.000000 133.531342,1.000000 
	C133.993729,2.750928 133.987473,4.501855 133.579285,6.645883 
	C130.650620,6.373410 128.123901,5.707839 125.157738,4.926514 
	C125.157738,8.103565 125.429756,10.915004 125.106949,13.656398 
	C124.123016,22.012146 124.813049,29.238634 135.160629,30.934196 
	C134.441544,35.411266 133.488693,39.867619 133.089417,44.373032 
	C132.842468,47.159409 132.861954,49.370106 129.522949,50.552406 
	C128.030167,51.080986 127.222931,53.545704 125.769897,55.635590 
	C125.269165,56.760010 125.103104,57.380589 124.937057,58.001167 
z"/>
<path fill="#060B0D" opacity="1.000000" stroke="none" 
	d="
M76.532394,1.000000 
	C76.811462,1.964644 76.950386,3.458353 76.382385,3.809923 
	C71.984634,6.531936 69.038078,10.566349 65.716980,14.383256 
	C61.010441,19.792437 53.524979,22.985998 52.884785,31.490431 
	C52.802681,32.581150 52.314331,34.162357 51.516312,34.592331 
	C46.838337,37.112823 47.043865,41.836308 45.697777,45.992210 
	C44.963161,48.260262 42.823772,50.066414 41.352829,52.106052 
	C40.704594,53.004910 40.243889,54.054230 39.521996,54.881641 
	C37.893417,56.748268 36.007526,58.406521 34.511196,60.366982 
	C33.435768,61.775986 32.820847,63.536469 31.541239,65.641312 
	C23.510208,66.142464 15.938437,66.142464 8.003988,66.142464 
	C8.003988,87.182472 7.983452,107.701485 8.088299,128.219864 
	C8.092017,128.947647 9.337968,129.669083 10.004951,130.393478 
	C9.335999,137.078430 8.684093,143.765137 7.991546,150.447632 
	C7.592227,154.300735 7.346515,158.326645 1.406285,157.999817 
	C1.000000,125.645775 1.000000,93.291542 1.393227,60.467850 
	C4.031353,58.632572 6.377409,57.405045 8.490621,55.859215 
	C10.334415,54.510464 11.708181,52.441620 13.653367,51.324062 
	C18.796663,48.369102 24.148155,45.777927 29.382729,42.978294 
	C29.916697,42.692711 30.370977,42.036873 30.607208,41.450165 
	C32.911037,35.728321 34.999779,29.912327 37.526527,24.292540 
	C38.255428,22.671389 40.137573,21.521473 41.611176,20.300556 
	C42.465546,19.592690 44.038898,19.420528 44.468754,18.585302 
	C47.685360,12.335308 51.505100,6.843616 58.600117,4.403366 
	C59.366295,4.139850 59.547466,2.175434 60.000000,1.000000 
	C65.354927,1.000000 70.709862,1.000000 76.532394,1.000000 
z"/>
<path fill="#080E10" opacity="1.000000" stroke="none" 
	d="
M59.531342,1.000000 
	C59.547466,2.175434 59.366295,4.139850 58.600117,4.403366 
	C51.505100,6.843616 47.685360,12.335308 44.468754,18.585302 
	C44.038898,19.420528 42.465546,19.592690 41.611176,20.300556 
	C40.137573,21.521473 38.255428,22.671389 37.526527,24.292540 
	C34.999779,29.912327 32.911037,35.728321 30.607208,41.450165 
	C30.370977,42.036873 29.916697,42.692711 29.382729,42.978294 
	C24.148155,45.777927 18.796663,48.369102 13.653367,51.324062 
	C11.708181,52.441620 10.334415,54.510464 8.490621,55.859215 
	C6.377409,57.405045 4.031353,58.632572 1.393227,59.999191 
	C1.000000,40.406528 1.000000,20.813059 1.000000,1.000000 
	C20.353674,1.000000 39.708179,1.000000 59.531342,1.000000 
z"/>
<path fill="#FDFDFD" opacity="1.000000" stroke="none" 
	d="
M10.464313,130.296814 
	C9.337968,129.669083 8.092017,128.947647 8.088299,128.219864 
	C7.983452,107.701485 8.003988,87.182472 8.003988,66.142464 
	C15.938437,66.142464 23.510208,66.142464 31.541201,66.041992 
	C37.309204,66.015938 42.624146,66.257088 47.922939,66.061264 
	C49.474838,66.003914 51.313335,65.043922 52.457695,63.923061 
	C68.109306,48.592850 83.660110,33.159729 99.243034,17.759338 
	C100.487305,16.529640 101.785538,15.354541 103.854889,13.403323 
	C103.854889,26.001150 103.854889,37.542015 103.956360,49.541965 
	C103.985474,62.319412 103.862167,74.637733 103.850677,86.956146 
	C103.821007,118.752815 103.840744,150.549515 103.840744,183.496445 
	C101.994682,181.800522 100.716599,180.708755 99.530823,179.524567 
	C84.092232,164.106430 68.733604,148.606888 53.145203,133.341919 
	C51.384354,131.617615 48.367771,130.377090 45.896862,130.312485 
	C34.246120,130.007797 22.582621,130.190979 10.464313,130.296814 
z"/>
<path fill="#FAFAFA" opacity="1.000000" stroke="none" 
	d="
M135.512939,30.962852 
	C124.813049,29.238634 124.123016,22.012146 125.106949,13.656398 
	C125.429756,10.915004 125.157738,8.103565 125.157738,4.926514 
	C128.123901,5.707839 130.650620,6.373410 133.566895,7.083640 
	C153.518158,14.365814 170.019257,25.684690 182.061111,43.021576 
	C196.838135,64.296295 202.697815,87.769455 198.487823,113.326920 
	C193.375732,144.360474 176.665222,167.600815 149.124207,182.697296 
	C141.836151,186.692230 133.715515,189.168259 125.156776,192.678177 
	C125.156776,184.981995 124.989296,178.672745 125.300735,172.387207 
	C125.361649,171.158005 127.057541,169.411697 128.373764,168.932602 
	C147.899033,161.825760 162.303513,148.955002 171.244156,130.307755 
	C187.026581,97.390823 176.053284,56.208241 145.539932,36.965191 
	C142.334229,34.943535 139.091034,32.981308 135.512939,30.962852 
z"/>
<path fill="#FAFAFA" opacity="1.000000" stroke="none" 
	d="
M125.033531,58.461029 
	C125.103104,57.380589 125.269165,56.760010 125.719040,55.982403 
	C141.687805,64.800453 150.405090,78.176765 151.772903,96.302040 
	C153.112366,114.051598 141.080139,134.483231 125.130013,140.698761 
	C125.130013,113.319038 125.130013,86.119965 125.033531,58.461029 
z"/>
</svg>